<?xml version="1.0" encoding="UTF-8"?>
<svg id="crown" width="72px" height="51px" viewBox="0 0 72 51" version="1.1" xmlns="http://www.w3.org/2000/svg" xmlns:xlink="http://www.w3.org/1999/xlink">
    <!-- Generator: Sketch 42 (36781) - http://www.bohemiancoding.com/sketch -->
    <title>9-Crown-G-Sharp</title>
    <desc>Created with Sketch.</desc>
    <defs></defs>
    <g id="Page-1" stroke="none" stroke-width="1" fill="none" fill-rule="evenodd">
        <g id="Artboard" transform="translate(-598.000000, -42.000000)" fill-rule="nonzero" fill="#FFFFFF">
            <g id="9-Crown-G-Sharp" transform="translate(598.000000, 42.000000)">
                <g id="Page-3">
                    <g>
                        <path d="M61.5008267,12.7357525 C61.5008267,14.7612643 62.4816814,16.5247236 63.9591325,17.5266891 C60.8376702,22.2097218 56.4330771,27.6480823 51.8927684,29.2234804 C45.9181908,31.2983198 40.3476761,18.5471525 37.605601,10.9692102 C39.6382529,10.2046334 41.1187883,8.11746217 41.1187883,5.6418366 C41.1187883,2.52803607 38.7961983,0 35.9338297,0 C33.07763,-2.05367111e-15 30.7519556,2.52803607 30.7519556,5.6418366 C30.7519556,8.11746217 32.2294066,10.2015504 34.2651429,10.9692102 C31.5292367,18.5471525 25.9648909,31.2983198 19.98106,29.2234804 C15.4469201,27.6480823 11.0330737,22.2097218 7.91778034,17.5266891 C9.38906246,16.5247236 10.3730017,14.7643473 10.3730017,12.7357525 C10.3730017,9.62195194 8.04424274,7.09083289 5.18187416,7.09083289 C2.32567447,7.09083289 0,9.62195194 0,12.7357525 C0,15.8588019 2.32567447,18.386838 5.18187416,18.386838 C5.24047869,18.386838 12.3377956,50.8751845 12.3377956,50.8751845 L59.5391172,50.8751845 L66.5439006,18.3652572 C69.5543228,18.386838 71.8799973,15.8588019 71.8799973,12.7357525 C71.8769128,9.62195194 69.5512383,7.09083289 66.6981231,7.09083289 C63.8265012,7.09083289 61.5008267,9.62195194 61.5008267,12.7357525 Z" id="9-Crown-G-Sharp"></path>
                    </g>
                </g>
            </g>
        </g>
    </g>
</svg>