<?xml version="1.0" encoding="UTF-8"?>
<svg width="55px" height="65px" viewBox="0 0 55 65" version="1.1" xmlns="http://www.w3.org/2000/svg" xmlns:xlink="http://www.w3.org/1999/xlink">
    <!-- Generator: Sketch 42 (36781) - http://www.bohemiancoding.com/sketch -->
    <title>8-Leaf-G</title>
    <desc>Created with Sketch.</desc>
    <defs></defs>
    <g id="Page-1" stroke="none" stroke-width="1" fill="none" fill-rule="evenodd">
        <g id="Artboard" transform="translate(-533.000000, -42.000000)" fill-rule="nonzero" fill="#FFFFFF">
            <g id="8-Leaf-G" transform="translate(533.000000, 42.000000)">
                <g id="Page-3">
                    <g>
                        <path d="M42.3206191,12.9269003 C45.6366478,16.5013665 48.4350088,20.2994854 50.1202299,24.0976042 C55.8480665,36.1464064 55.8480665,48.1952085 50.1202299,54.2196095 C45.0582619,59.5432547 35.5238229,60.162499 29.4213829,56.8688275 C29.4423451,56.9867783 29.4547962,57.1077087 29.4580547,57.230974 L29.6458606,64.3355705 L25.0967153,64.3355705 L24.9089094,57.230974 C24.9060107,57.1213174 24.9105933,57.0134038 24.9221905,56.9077133 C18.8171949,60.1575285 9.33777296,59.5222051 4.29620931,54.2196095 C-1.43206977,48.1952085 -1.43206977,36.1464064 4.29620931,24.0976042 C8.30573922,15.0610027 18.6160222,6.02440106 27.2079984,0 C29.9376614,1.9139467 32.8408023,4.13192295 35.6602519,6.55733885 C33.7605557,7.28072659 32.4161074,9.0707739 32.4161074,11.1644295 C32.4161074,13.8980537 34.7080895,16.114094 37.5353927,16.114094 C39.7206044,16.114094 41.5860322,14.7903015 42.3206191,12.9269003 Z" id="8-Leaf-G"></path>
                    </g>
                </g>
            </g>
        </g>
    </g>
</svg>