<?xml version="1.0" encoding="UTF-8"?>
<svg id="plus" width="59px" height="59px" viewBox="0 0 59 59" version="1.1" xmlns="http://www.w3.org/2000/svg" xmlns:xlink="http://www.w3.org/1999/xlink">
    <!-- Generator: Sketch 42 (36781) - http://www.bohemiancoding.com/sketch -->
    <title>4-Plus-D-Sharp</title>
    <desc>Created with Sketch.</desc>
    <defs></defs>
    <g id="Page-1" stroke="none" stroke-width="1" fill="none" fill-rule="evenodd">
        <g id="Artboard" transform="translate(-278.000000, -42.000000)" fill-rule="nonzero" fill="#FFFFFF">
            <g id="4-Plus-D-Sharp" transform="translate(278.000000, 42.000000)">
                <g id="Page-3">
                    <g>
                        <path d="M18.5,18.5 L4.00892456,18.5 C1.79796785,18.5 0,20.2951402 0,22.5095579 L0,36.4904421 C0,38.6996477 1.79485666,40.5 4.00892456,40.5 L18.5,40.5 L18.5,54.9910754 C18.5,57.2020322 20.2951402,59 22.5095579,59 L36.4904421,59 C38.6996477,59 40.5,57.2051433 40.5,54.9910754 L40.5,40.5 L54.9910754,40.5 C57.2020322,40.5 59,38.7048598 59,36.4904421 L59,22.5095579 C59,20.3003523 57.2051433,18.5 54.9910754,18.5 L40.5,18.5 L40.5,4.00892456 C40.5,1.79796785 38.7048598,-1.35593976e-16 36.4904421,0 L22.5095579,8.56082257e-16 C20.3003523,9.91357077e-16 18.5,1.79485666 18.5,4.00892456 L18.5,18.5 Z" id="4-Plus-D-Sharp"></path>
                    </g>
                </g>
            </g>
        </g>
    </g>
</svg>