<?xml version="1.0" encoding="UTF-8"?>
<svg width="76px" height="75px" viewBox="0 0 76 75" version="1.1" xmlns="http://www.w3.org/2000/svg" xmlns:xlink="http://www.w3.org/1999/xlink">
    <!-- Generator: Sketch 42 (36781) - http://www.bohemiancoding.com/sketch -->
    <title>12-Sun-B</title>
    <desc>Created with Sketch.</desc>
    <defs></defs>
    <g id="Page-1" stroke="none" stroke-width="1" fill="none" fill-rule="evenodd">
        <g id="Artboard" transform="translate(-823.000000, -42.000000)" fill-rule="nonzero" fill="#FFFFFF">
            <g id="12-Sun-B" transform="translate(823.000000, 42.000000)">
                <g id="Page-3">
                    <g>
                        <polygon id="12-Sun-B" points="37.6349963 64.1970906 30.6899574 74.8830026 28.0774961 62.4120549 17.7378465 69.8697401 19.810787 57.2980255 7.47295018 60.5202772 13.9513387 49.5456836 1.28161246 48.0973226 11.2904993 40.2020245 0 34.2786599 12.1876297 30.5289609 3.80120162 20.9305759 16.5215675 21.8328936 12.1718441 9.85580297 23.7069959 15.288271 23.9814343 2.550047 32.7734678 11.77899 37.6349979 0 42.4965277 11.7789901 51.2885782 2.55005383 51.5629995 15.2882713 63.0981515 9.85580357 58.7484278 21.8328941 71.4687977 20.9305848 63.0823671 30.5289676 75.2699966 34.2786788 63.9794956 40.2020251 73.9883797 48.0973321 61.3186531 49.5456898 67.7970333 60.5202923 55.4592075 57.298026 57.5321477 69.8697405 47.1924952 62.4120563 44.5800278 74.8830044"></polygon>
                    </g>
                </g>
            </g>
        </g>
    </g>
</svg>